<svg width="120" height="18" viewBox="0 0 120 18" fill="none" xmlns="http://www.w3.org/2000/svg">
<path d="M23.748 13.372C23.708 13.044 23.676 12.688 23.652 12.304C23.636 11.912 23.628 11.548 23.628 11.212C23.628 10.676 23.644 10.164 23.676 9.676C23.716 9.18 23.76 8.664 23.808 8.128C23.864 7.584 23.924 6.996 23.988 6.364C24.052 5.724 24.108 4.988 24.156 4.156C24.26 4.156 24.408 4.188 24.6 4.252C24.8 4.308 25 4.376 25.2 4.456C25.4 4.536 25.576 4.62 25.728 4.708C25.88 4.788 25.968 4.856 25.992 4.912C25.856 5.224 25.732 5.636 25.62 6.148C25.516 6.652 25.428 7.204 25.356 7.804C25.284 8.404 25.228 9.02 25.188 9.652C25.148 10.284 25.128 10.876 25.128 11.428C25.128 11.684 25.132 11.936 25.14 12.184C25.148 12.432 25.16 12.66 25.176 12.868C25.344 12.62 25.536 12.268 25.752 11.812C25.976 11.348 26.204 10.832 26.436 10.264C26.676 9.696 26.912 9.104 27.144 8.488C27.384 7.864 27.604 7.272 27.804 6.712C28.004 6.144 28.172 5.636 28.308 5.188C28.452 4.732 28.552 4.388 28.608 4.156C28.712 4.156 28.864 4.188 29.064 4.252C29.272 4.308 29.472 4.376 29.664 4.456C29.864 4.536 30.04 4.62 30.192 4.708C30.344 4.788 30.428 4.856 30.444 4.912C30.308 5.224 30.184 5.636 30.072 6.148C29.968 6.652 29.88 7.204 29.808 7.804C29.736 8.404 29.68 9.02 29.64 9.652C29.6 10.284 29.58 10.876 29.58 11.428C29.58 11.66 29.58 11.892 29.58 12.124C29.588 12.348 29.6 12.552 29.616 12.736C29.872 12.072 30.136 11.416 30.408 10.768C30.688 10.112 30.964 9.488 31.236 8.896C31.508 8.296 31.772 7.74 32.028 7.228C32.284 6.708 32.52 6.248 32.736 5.848C32.952 5.44 33.14 5.104 33.3 4.84C33.46 4.576 33.584 4.4 33.672 4.312C33.856 4.336 34.044 4.404 34.236 4.516C34.436 4.62 34.612 4.756 34.764 4.924C34.532 5.108 34.268 5.412 33.972 5.836C33.676 6.252 33.372 6.736 33.06 7.288C32.748 7.84 32.432 8.428 32.112 9.052C31.8 9.676 31.508 10.284 31.236 10.876C30.964 11.468 30.72 12.02 30.504 12.532C30.296 13.044 30.136 13.456 30.024 13.768C29.816 13.864 29.612 13.912 29.412 13.912C29.156 13.88 28.912 13.816 28.68 13.72C28.456 13.624 28.296 13.508 28.2 13.372C28.176 13.244 28.156 13.096 28.14 12.928C28.124 12.752 28.112 12.58 28.104 12.412C28.096 12.244 28.088 12.084 28.08 11.932C28.08 11.772 28.08 11.636 28.08 11.524C28.08 10.812 28.108 10.088 28.164 9.352C28.22 8.608 28.288 7.812 28.368 6.964C28.184 7.508 27.98 8.092 27.756 8.716C27.532 9.34 27.296 9.96 27.048 10.576C26.808 11.184 26.56 11.768 26.304 12.328C26.056 12.88 25.812 13.36 25.572 13.768C25.364 13.864 25.16 13.912 24.96 13.912C24.704 13.88 24.46 13.816 24.228 13.72C24.004 13.624 23.844 13.508 23.748 13.372ZM37.9116 8.032C37.8796 8.528 37.7916 8.956 37.6476 9.316C37.5036 9.668 37.2956 9.98 37.0236 10.252C36.7596 10.516 36.4356 10.756 36.0516 10.972C35.6676 11.188 35.2196 11.396 34.7076 11.596C34.7076 11.644 34.7036 11.696 34.6956 11.752C34.6956 11.8 34.6956 11.852 34.6956 11.908C34.6956 12.012 34.7036 12.12 34.7196 12.232C34.7356 12.344 34.7636 12.448 34.8036 12.544C34.8436 12.64 34.8996 12.72 34.9716 12.784C35.0436 12.84 35.1356 12.868 35.2476 12.868C35.4636 12.868 35.6756 12.82 35.8836 12.724C36.0916 12.628 36.2876 12.512 36.4716 12.376C36.6636 12.232 36.8396 12.08 36.9996 11.92C37.1676 11.752 37.3156 11.6 37.4436 11.464C37.5236 11.536 37.5916 11.604 37.6476 11.668C37.2876 12.148 36.8916 12.548 36.4596 12.868C36.0356 13.18 35.6316 13.38 35.2476 13.468C34.6956 13.404 34.2636 13.204 33.9516 12.868C33.6476 12.524 33.4956 12.112 33.4956 11.632C33.4956 11.304 33.5396 10.972 33.6276 10.636C33.7236 10.292 33.8516 9.964 34.0116 9.652C34.1796 9.332 34.3716 9.032 34.5876 8.752C34.8116 8.472 35.0476 8.228 35.2956 8.02C35.5516 7.812 35.8116 7.648 36.0756 7.528C36.3476 7.408 36.6156 7.348 36.8796 7.348C37.2476 7.396 37.5916 7.624 37.9116 8.032ZM37.0836 8.428C36.8676 8.46 36.6436 8.548 36.4116 8.692C36.1796 8.836 35.9596 9.028 35.7516 9.268C35.5516 9.508 35.3676 9.788 35.1996 10.108C35.0316 10.428 34.8996 10.772 34.8036 11.14C35.4436 10.82 35.9756 10.428 36.3996 9.964C36.8236 9.492 37.0516 8.98 37.0836 8.428ZM43.2071 8.152C43.2871 8.152 43.3791 8.168 43.4831 8.2C43.5951 8.224 43.6951 8.26 43.7831 8.308C43.8711 8.348 43.9431 8.392 43.9991 8.44C44.0631 8.488 44.0951 8.532 44.0951 8.572C43.9351 8.908 43.7871 9.248 43.6511 9.592C43.5151 9.928 43.3991 10.252 43.3031 10.564C43.2071 10.876 43.1311 11.168 43.0751 11.44C43.0271 11.712 43.0031 11.948 43.0031 12.148C43.0031 12.372 43.0271 12.56 43.0751 12.712C43.1231 12.856 43.2031 12.96 43.3151 13.024C43.2191 13.088 43.0951 13.14 42.9431 13.18C42.7911 13.22 42.6551 13.24 42.5351 13.24C42.1031 13.24 41.8871 12.944 41.8871 12.352C41.8871 11.896 42.0391 11.272 42.3431 10.48C42.1831 10.848 41.9991 11.196 41.7911 11.524C41.5831 11.844 41.3711 12.128 41.1551 12.376C40.9391 12.624 40.7191 12.828 40.4951 12.988C40.2791 13.14 40.0791 13.232 39.8951 13.264C39.5991 13.248 39.3591 13.108 39.1751 12.844C38.9911 12.572 38.8991 12.228 38.8991 11.812C38.8991 11.364 38.9951 10.892 39.1871 10.396C39.3791 9.9 39.6231 9.44 39.9191 9.016C40.2231 8.592 40.5511 8.24 40.9031 7.96C41.2551 7.672 41.5951 7.52 41.9231 7.504C42.0031 7.528 42.0911 7.576 42.1871 7.648C42.2911 7.72 42.3871 7.804 42.4751 7.9C42.5711 7.996 42.6511 8.096 42.7151 8.2C42.7791 8.296 42.8151 8.38 42.8231 8.452C42.5031 8.5 42.1711 8.656 41.8271 8.92C41.4911 9.184 41.1831 9.504 40.9031 9.88C40.6311 10.248 40.4071 10.644 40.2311 11.068C40.0551 11.492 39.9671 11.888 39.9671 12.256C39.9671 12.408 40.0231 12.504 40.1351 12.544C40.3671 12.496 40.6351 12.3 40.9391 11.956C41.2431 11.604 41.6111 11.064 42.0431 10.336C42.1231 10.192 42.2111 10.032 42.3071 9.856C42.4111 9.68 42.5151 9.496 42.6191 9.304C42.7231 9.112 42.8231 8.92 42.9191 8.728C43.0231 8.528 43.1191 8.336 43.2071 8.152ZM45.8126 8.404C45.7726 8.356 45.7366 8.256 45.7046 8.104C45.6726 7.944 45.6566 7.808 45.6566 7.696C45.8646 7.712 46.0646 7.728 46.2566 7.744C46.4486 7.752 46.6246 7.76 46.7846 7.768C46.9046 7.528 47.0326 7.292 47.1686 7.06C47.3126 6.82 47.4486 6.604 47.5766 6.412C47.7126 6.212 47.8366 6.044 47.9486 5.908C48.0686 5.772 48.1606 5.684 48.2246 5.644C48.3046 5.644 48.4046 5.66 48.5246 5.692C48.6526 5.716 48.7806 5.752 48.9086 5.8C49.0366 5.84 49.1526 5.884 49.2566 5.932C49.3606 5.98 49.4326 6.028 49.4726 6.076C49.2326 6.38 49.0246 6.664 48.8486 6.928C48.6806 7.184 48.4966 7.48 48.2966 7.816C48.4566 7.816 48.6166 7.812 48.7766 7.804C48.9446 7.796 49.1126 7.784 49.2806 7.768C49.3206 7.808 49.3526 7.86 49.3766 7.924C49.4006 7.98 49.4126 8.04 49.4126 8.104C49.0206 8.248 48.5446 8.328 47.9846 8.344C47.7846 8.728 47.6046 9.112 47.4446 9.496C47.2926 9.872 47.1606 10.236 47.0486 10.588C46.9446 10.94 46.8606 11.272 46.7966 11.584C46.7406 11.896 46.7126 12.176 46.7126 12.424C46.7126 12.776 46.8446 12.972 47.1086 13.012C47.3486 12.98 47.5766 12.92 47.7926 12.832C48.0086 12.744 48.2006 12.632 48.3686 12.496C48.4166 12.568 48.4446 12.628 48.4526 12.676C48.4046 12.748 48.3206 12.832 48.2006 12.928C48.0886 13.024 47.9646 13.116 47.8286 13.204C47.6926 13.3 47.5606 13.38 47.4326 13.444C47.3046 13.508 47.2086 13.544 47.1446 13.552C46.9446 13.544 46.7446 13.5 46.5446 13.42C46.3446 13.34 46.1606 13.24 45.9926 13.12C45.8326 13 45.7006 12.868 45.5966 12.724C45.4926 12.572 45.4406 12.424 45.4406 12.28C45.4406 12.088 45.4646 11.848 45.5126 11.56C45.5686 11.264 45.6446 10.944 45.7406 10.6C45.8366 10.256 45.9486 9.896 46.0766 9.52C46.2046 9.144 46.3446 8.772 46.4966 8.404H45.8126ZM49.9114 12.796C49.9114 12.516 49.9394 12.188 49.9954 11.812C50.0514 11.428 50.1314 11.02 50.2354 10.588C50.3474 10.156 50.4754 9.704 50.6194 9.232C50.7714 8.76 50.9394 8.288 51.1234 7.816C51.2834 7.392 51.4674 6.964 51.6754 6.532C51.8914 6.1 52.1234 5.676 52.3714 5.26C52.6194 4.844 52.8754 4.448 53.1394 4.072C53.4114 3.696 53.6834 3.352 53.9554 3.04C54.0834 3.04 54.2194 3.056 54.3634 3.088C54.5154 3.12 54.6594 3.164 54.7954 3.22C54.9394 3.268 55.0674 3.328 55.1794 3.4C55.2994 3.472 55.3954 3.544 55.4674 3.616C54.8674 4.232 54.3274 4.856 53.8474 5.488C53.3674 6.112 52.9874 6.7 52.7074 7.252C52.5554 7.556 52.4154 7.84 52.2874 8.104C52.1674 8.368 52.0554 8.632 51.9514 8.896C51.8474 9.152 51.7514 9.412 51.6634 9.676C51.5834 9.932 51.5074 10.204 51.4354 10.492C52.9714 8.532 54.1114 7.552 54.8554 7.552C55.0634 7.552 55.2874 7.62 55.5274 7.756C55.7674 7.892 55.9794 8.076 56.1634 8.308C55.9154 8.58 55.6594 8.908 55.3954 9.292C55.1314 9.676 54.8874 10.064 54.6634 10.456C54.4474 10.84 54.2674 11.2 54.1234 11.536C53.9874 11.864 53.9194 12.108 53.9194 12.268C53.9194 12.348 53.9314 12.404 53.9554 12.436C53.9794 12.46 54.0314 12.472 54.1114 12.472C54.2314 12.472 54.3274 12.456 54.3994 12.424C54.4714 12.392 54.5154 12.376 54.5314 12.376C54.5714 12.44 54.5954 12.484 54.6034 12.508C54.6114 12.532 54.6154 12.552 54.6154 12.568C54.6154 12.6 54.5674 12.648 54.4714 12.712C54.3754 12.768 54.2594 12.828 54.1234 12.892C53.9954 12.948 53.8674 13 53.7394 13.048C53.6114 13.096 53.5154 13.12 53.4514 13.12C53.3714 13.12 53.2914 13.096 53.2114 13.048C53.1314 13.008 53.0594 12.952 52.9954 12.88C52.9394 12.808 52.8914 12.728 52.8514 12.64C52.8194 12.552 52.8034 12.46 52.8034 12.364C52.8034 12.244 52.8354 12.068 52.8994 11.836C52.9714 11.596 53.0674 11.32 53.1874 11.008C53.3074 10.688 53.4514 10.34 53.6194 9.964C53.7874 9.588 53.9674 9.204 54.1594 8.812C54.1594 8.78 54.1434 8.764 54.1114 8.764C54.0874 8.764 54.0234 8.796 53.9194 8.86C53.8234 8.924 53.7314 8.988 53.6434 9.052C53.3554 9.268 53.0634 9.536 52.7674 9.856C52.4794 10.168 52.1954 10.512 51.9154 10.888C51.6434 11.264 51.3834 11.664 51.1354 12.088C50.8954 12.504 50.6874 12.924 50.5114 13.348C50.4874 13.404 50.4514 13.456 50.4034 13.504C50.3554 13.552 50.3154 13.576 50.2834 13.576C50.2594 13.576 50.2234 13.548 50.1754 13.492C50.1354 13.436 50.0954 13.364 50.0554 13.276C50.0234 13.196 49.9914 13.112 49.9594 13.024C49.9274 12.936 49.9114 12.86 49.9114 12.796ZM61.0186 8.032C60.9866 8.528 60.8986 8.956 60.7546 9.316C60.6106 9.668 60.4026 9.98 60.1306 10.252C59.8666 10.516 59.5426 10.756 59.1586 10.972C58.7746 11.188 58.3266 11.396 57.8146 11.596C57.8146 11.644 57.8106 11.696 57.8026 11.752C57.8026 11.8 57.8026 11.852 57.8026 11.908C57.8026 12.012 57.8106 12.12 57.8266 12.232C57.8426 12.344 57.8706 12.448 57.9106 12.544C57.9506 12.64 58.0066 12.72 58.0786 12.784C58.1506 12.84 58.2426 12.868 58.3546 12.868C58.5706 12.868 58.7826 12.82 58.9906 12.724C59.1986 12.628 59.3946 12.512 59.5786 12.376C59.7706 12.232 59.9466 12.08 60.1066 11.92C60.2746 11.752 60.4226 11.6 60.5506 11.464C60.6306 11.536 60.6986 11.604 60.7546 11.668C60.3946 12.148 59.9986 12.548 59.5666 12.868C59.1426 13.18 58.7386 13.38 58.3546 13.468C57.8026 13.404 57.3706 13.204 57.0586 12.868C56.7546 12.524 56.6026 12.112 56.6026 11.632C56.6026 11.304 56.6466 10.972 56.7346 10.636C56.8306 10.292 56.9586 9.964 57.1186 9.652C57.2866 9.332 57.4786 9.032 57.6946 8.752C57.9186 8.472 58.1546 8.228 58.4026 8.02C58.6586 7.812 58.9186 7.648 59.1826 7.528C59.4546 7.408 59.7226 7.348 59.9866 7.348C60.3546 7.396 60.6986 7.624 61.0186 8.032ZM60.1906 8.428C59.9746 8.46 59.7506 8.548 59.5186 8.692C59.2866 8.836 59.0666 9.028 58.8586 9.268C58.6586 9.508 58.4746 9.788 58.3066 10.108C58.1386 10.428 58.0066 10.772 57.9106 11.14C58.5506 10.82 59.0826 10.428 59.5066 9.964C59.9306 9.492 60.1586 8.98 60.1906 8.428ZM61.8862 12.76C61.9262 12.528 61.9942 12.224 62.0902 11.848C62.1942 11.464 62.3142 11.06 62.4502 10.636C62.5862 10.204 62.7302 9.772 62.8822 9.34C63.0342 8.908 63.1822 8.52 63.3262 8.176C63.4302 7.928 63.5222 7.736 63.6022 7.6C63.6822 7.456 63.7702 7.336 63.8662 7.24C63.9782 7.256 64.0942 7.284 64.2142 7.324C64.3342 7.364 64.4502 7.412 64.5622 7.468C64.6742 7.524 64.7742 7.584 64.8622 7.648C64.9502 7.704 65.0182 7.76 65.0662 7.816C64.8502 8.072 64.6582 8.364 64.4902 8.692C64.3302 9.02 64.1662 9.44 63.9982 9.952C64.4302 9.568 64.8102 9.2 65.1382 8.848C65.4742 8.496 65.7862 8.104 66.0742 7.672C66.1222 7.632 66.2062 7.612 66.3262 7.612C66.4382 7.612 66.5462 7.632 66.6502 7.672C66.7542 7.704 66.8262 7.752 66.8662 7.816C66.7222 8.2 66.6502 8.58 66.6502 8.956C66.6502 9.308 66.7022 9.572 66.8062 9.748C66.7982 9.796 66.7422 9.888 66.6382 10.024C66.5422 10.16 66.4342 10.288 66.3142 10.408C66.0982 10.296 65.9062 10.144 65.7382 9.952C65.5702 9.752 65.4462 9.536 65.3662 9.304C64.9902 9.568 64.6702 9.828 64.4062 10.084C64.1422 10.332 63.9142 10.612 63.7222 10.924C63.5382 11.228 63.3782 11.58 63.2422 11.98C63.1142 12.38 62.9902 12.856 62.8702 13.408C62.7982 13.4 62.7102 13.372 62.6062 13.324C62.5102 13.284 62.4102 13.232 62.3062 13.168C62.2102 13.104 62.1222 13.036 62.0422 12.964C61.9622 12.892 61.9102 12.824 61.8862 12.76ZM71.9033 12.316C72.1033 12.66 72.2033 12.992 72.2033 13.312C72.2033 13.384 72.1953 13.448 72.1793 13.504C72.1713 13.568 72.1593 13.632 72.1433 13.696C72.0073 13.68 71.8633 13.668 71.7113 13.66C71.5673 13.652 71.4153 13.648 71.2553 13.648C71.0633 13.648 70.8673 13.652 70.6673 13.66C70.4753 13.676 70.2593 13.696 70.0193 13.72C69.7793 13.744 69.5113 13.776 69.2153 13.816C68.9193 13.856 68.5753 13.908 68.1833 13.972C67.9993 13.908 67.8153 13.78 67.6313 13.588C67.4473 13.404 67.2753 13.18 67.1153 12.916C67.1953 12.74 67.2953 12.524 67.4153 12.268C67.5353 12.004 67.6753 11.688 67.8353 11.32C67.9953 10.944 68.1713 10.508 68.3633 10.012C68.5633 9.508 68.7753 8.928 68.9993 8.272C69.1433 7.84 69.2673 7.46 69.3713 7.132C69.4753 6.804 69.5673 6.488 69.6473 6.184C69.7353 5.872 69.8193 5.548 69.8993 5.212C69.9793 4.876 70.0673 4.488 70.1633 4.048C70.4833 4.112 70.7593 4.232 70.9913 4.408C71.2313 4.576 71.4593 4.82 71.6753 5.14C71.6113 5.244 71.5273 5.412 71.4233 5.644C71.3193 5.876 71.1953 6.16 71.0513 6.496C70.9153 6.824 70.7633 7.2 70.5953 7.624C70.4273 8.04 70.2513 8.488 70.0673 8.968C69.8913 9.44 69.7193 9.884 69.5513 10.3C69.3833 10.716 69.2313 11.092 69.0953 11.428C68.9673 11.764 68.8633 12.052 68.7833 12.292C68.7033 12.532 68.6633 12.712 68.6633 12.832C68.7913 12.824 68.9073 12.816 69.0113 12.808C69.1153 12.8 69.2233 12.788 69.3353 12.772C69.4473 12.748 69.5673 12.724 69.6953 12.7C69.8313 12.668 69.9913 12.628 70.1753 12.58C70.3353 12.54 70.4833 12.508 70.6193 12.484C70.7553 12.452 70.8873 12.428 71.0153 12.412C71.1513 12.388 71.2873 12.372 71.4233 12.364C71.5673 12.348 71.7273 12.332 71.9033 12.316ZM74.8683 13.42C74.4123 13.372 74.0483 13.172 73.7763 12.82C73.5043 12.468 73.3683 12.02 73.3683 11.476C73.3683 11.156 73.4163 10.824 73.5123 10.48C73.6083 10.136 73.7443 9.804 73.9203 9.484C74.0963 9.156 74.3043 8.848 74.5443 8.56C74.7843 8.272 75.0443 8.024 75.3243 7.816C75.7643 7.488 76.1763 7.324 76.5603 7.324C76.8163 7.46 77.0683 7.744 77.3163 8.176C77.3563 8.176 77.3923 8.176 77.4243 8.176C77.4563 8.168 77.4923 8.164 77.5323 8.164C77.9563 8.164 78.1683 8.54 78.1683 9.292C78.1683 9.796 78.0843 10.276 77.9163 10.732C77.7563 11.18 77.5283 11.588 77.2323 11.956C76.9443 12.324 76.5963 12.636 76.1883 12.892C75.7883 13.14 75.3483 13.316 74.8683 13.42ZM75.4803 9.64C75.3443 9.824 75.2163 10.024 75.0963 10.24C74.9763 10.456 74.8723 10.676 74.7843 10.9C74.6963 11.116 74.6283 11.328 74.5803 11.536C74.5323 11.736 74.5083 11.916 74.5083 12.076C74.5083 12.268 74.5403 12.452 74.6043 12.628C74.6683 12.804 74.7403 12.904 74.8203 12.928C75.1803 12.848 75.5083 12.7 75.8043 12.484C76.1083 12.26 76.3683 11.984 76.5843 11.656C76.8083 11.328 76.9803 10.956 77.1003 10.54C77.2283 10.124 77.2923 9.68 77.2923 9.208C77.2923 9 77.2803 8.836 77.2563 8.716C77.2323 8.596 77.1923 8.492 77.1363 8.404C76.7843 8.508 76.4683 8.676 76.1883 8.908C75.9163 9.14 75.6803 9.384 75.4803 9.64ZM80.7652 13.42C80.3092 13.372 79.9452 13.172 79.6732 12.82C79.4012 12.468 79.2652 12.02 79.2652 11.476C79.2652 11.156 79.3132 10.824 79.4092 10.48C79.5052 10.136 79.6412 9.804 79.8172 9.484C79.9932 9.156 80.2012 8.848 80.4412 8.56C80.6812 8.272 80.9412 8.024 81.2212 7.816C81.6612 7.488 82.0732 7.324 82.4572 7.324C82.7132 7.46 82.9652 7.744 83.2132 8.176C83.2532 8.176 83.2892 8.176 83.3212 8.176C83.3532 8.168 83.3892 8.164 83.4292 8.164C83.8532 8.164 84.0652 8.54 84.0652 9.292C84.0652 9.796 83.9812 10.276 83.8132 10.732C83.6532 11.18 83.4252 11.588 83.1292 11.956C82.8412 12.324 82.4932 12.636 82.0852 12.892C81.6852 13.14 81.2452 13.316 80.7652 13.42ZM81.3772 9.64C81.2412 9.824 81.1132 10.024 80.9932 10.24C80.8732 10.456 80.7692 10.676 80.6812 10.9C80.5932 11.116 80.5252 11.328 80.4772 11.536C80.4292 11.736 80.4052 11.916 80.4052 12.076C80.4052 12.268 80.4372 12.452 80.5012 12.628C80.5652 12.804 80.6372 12.904 80.7172 12.928C81.0772 12.848 81.4052 12.7 81.7012 12.484C82.0052 12.26 82.2652 11.984 82.4812 11.656C82.7052 11.328 82.8772 10.956 82.9972 10.54C83.1252 10.124 83.1892 9.68 83.1892 9.208C83.1892 9 83.1772 8.836 83.1532 8.716C83.1292 8.596 83.0892 8.492 83.0332 8.404C82.6812 8.508 82.3652 8.676 82.0852 8.908C81.8132 9.14 81.5772 9.384 81.3772 9.64ZM85.27 11.872C85.27 11.584 85.342 11.184 85.486 10.672C85.638 10.16 85.834 9.6 86.074 8.992C86.314 8.384 86.586 7.756 86.89 7.108C87.194 6.46 87.498 5.856 87.802 5.296C88.114 4.736 88.41 4.252 88.69 3.844C88.978 3.436 89.222 3.16 89.422 3.016C89.534 3.024 89.654 3.072 89.782 3.16C89.918 3.248 90.042 3.356 90.154 3.484C90.266 3.604 90.358 3.732 90.43 3.868C90.51 4.004 90.55 4.128 90.55 4.24C90.19 4.528 89.822 4.9 89.446 5.356C89.078 5.804 88.726 6.3 88.39 6.844C88.054 7.38 87.742 7.952 87.454 8.56C87.174 9.16 86.938 9.752 86.746 10.336C87.002 9.896 87.27 9.496 87.55 9.136C87.83 8.776 88.11 8.468 88.39 8.212C88.67 7.956 88.942 7.76 89.206 7.624C89.478 7.48 89.734 7.404 89.974 7.396C90.326 7.652 90.502 7.992 90.502 8.416C90.502 8.672 90.45 8.932 90.346 9.196C90.242 9.452 90.102 9.692 89.926 9.916C89.758 10.132 89.562 10.32 89.338 10.48C89.122 10.632 88.894 10.732 88.654 10.78C88.734 11.06 88.834 11.344 88.954 11.632C89.082 11.92 89.23 12.2 89.398 12.472C89.574 12.744 89.77 12.996 89.986 13.228C90.21 13.46 90.462 13.656 90.742 13.816C90.702 13.896 90.642 13.976 90.562 14.056C90.482 14.136 90.386 14.204 90.274 14.26C90.162 14.324 90.038 14.372 89.902 14.404C89.774 14.444 89.646 14.464 89.518 14.464C89.302 14.464 89.098 14.356 88.906 14.14C88.722 13.924 88.554 13.612 88.402 13.204C88.282 12.876 88.166 12.484 88.054 12.028C87.942 11.572 87.842 11.096 87.754 10.6C87.866 10.528 88.006 10.424 88.174 10.288C88.342 10.144 88.518 9.98 88.702 9.796C89.406 9.116 89.758 8.528 89.758 8.032C89.758 7.968 89.714 7.936 89.626 7.936C89.466 7.944 89.278 8.02 89.062 8.164C88.846 8.308 88.614 8.508 88.366 8.764C88.126 9.02 87.878 9.32 87.622 9.664C87.374 10.008 87.134 10.38 86.902 10.78C86.806 10.94 86.718 11.124 86.638 11.332C86.558 11.54 86.486 11.756 86.422 11.98C86.366 12.196 86.322 12.412 86.29 12.628C86.258 12.844 86.242 13.044 86.242 13.228C86.242 13.34 86.254 13.432 86.278 13.504C86.03 13.48 85.878 13.416 85.822 13.312C85.758 13.216 85.702 13.136 85.654 13.072C85.614 13.016 85.57 12.968 85.522 12.928C85.45 12.872 85.39 12.752 85.342 12.568C85.294 12.384 85.27 12.152 85.27 11.872ZM96.1505 4.924C95.7985 5.396 95.4785 5.916 95.1905 6.484C94.9025 7.052 94.6545 7.636 94.4465 8.236C94.2465 8.828 94.0905 9.416 93.9785 10C93.8745 10.576 93.8225 11.116 93.8225 11.62C93.8225 12.244 93.9145 12.696 94.0985 12.976C94.2825 13.256 94.5985 13.396 95.0465 13.396C95.5665 13.396 96.0225 13.216 96.4145 12.856C96.8065 12.488 97.1745 11.984 97.5185 11.344C97.7425 10.928 97.9345 10.472 98.0945 9.976C98.2545 9.48 98.3825 8.972 98.4785 8.452C98.5825 7.924 98.6585 7.396 98.7065 6.868C98.7545 6.332 98.7785 5.82 98.7785 5.332C98.7785 5.02 98.7745 4.792 98.7665 4.648C98.7585 4.504 98.7465 4.388 98.7305 4.3C98.7545 4.3 98.8145 4.308 98.9105 4.324C99.0065 4.34 99.1145 4.36 99.2345 4.384C99.3625 4.408 99.4865 4.44 99.6065 4.48C99.7345 4.52 99.8425 4.564 99.9305 4.612C99.8905 5.22 99.8145 5.848 99.7025 6.496C99.5985 7.144 99.4585 7.784 99.2825 8.416C99.1065 9.048 98.9025 9.656 98.6705 10.24C98.4385 10.824 98.1785 11.348 97.8905 11.812C97.4665 12.5 96.9905 13.036 96.4625 13.42C95.9345 13.812 95.3105 14.008 94.5905 14.008C93.8545 14.008 93.2825 13.792 92.8745 13.36C92.4665 12.936 92.2625 12.288 92.2625 11.416C92.2625 10.912 92.3185 10.344 92.4305 9.712C92.5425 9.072 92.6905 8.424 92.8745 7.768C93.0665 7.104 93.2865 6.46 93.5345 5.836C93.7825 5.204 94.0425 4.64 94.3145 4.144C94.4505 4.152 94.6105 4.18 94.7945 4.228C94.9785 4.276 95.1585 4.34 95.3345 4.42C95.5105 4.492 95.6705 4.576 95.8145 4.672C95.9665 4.76 96.0785 4.844 96.1505 4.924ZM99.4567 16.972C99.3447 16.94 99.2807 16.82 99.2647 16.612C99.2327 16.508 99.2087 16.384 99.1927 16.24C99.1847 16.096 99.1807 15.932 99.1807 15.748C99.1807 15.58 99.2087 15.348 99.2647 15.052C99.3207 14.764 99.3967 14.436 99.4927 14.068C99.5967 13.7 99.7207 13.304 99.8647 12.88C100.009 12.448 100.169 12.012 100.345 11.572C100.561 11.02 100.749 10.544 100.909 10.144C101.069 9.736 101.201 9.384 101.305 9.088C101.417 8.792 101.505 8.548 101.569 8.356C101.641 8.164 101.697 8 101.737 7.864C101.769 7.768 101.817 7.652 101.881 7.516C101.945 7.38 102.017 7.244 102.097 7.108C102.185 6.964 102.273 6.832 102.361 6.712C102.449 6.584 102.529 6.488 102.601 6.424C102.881 6.464 103.145 6.536 103.393 6.64C103.641 6.744 103.793 6.844 103.849 6.94C103.737 7.044 103.609 7.208 103.465 7.432C103.321 7.648 103.181 7.888 103.045 8.152C102.909 8.408 102.785 8.672 102.673 8.944C102.561 9.216 102.477 9.456 102.421 9.664C102.501 9.528 102.605 9.38 102.733 9.22C102.861 9.06 103.057 8.84 103.321 8.56C103.617 8.256 103.893 8.024 104.149 7.864C104.413 7.696 104.641 7.612 104.833 7.612C105.137 7.612 105.385 7.696 105.577 7.864C105.777 8.032 105.877 8.248 105.877 8.512C105.877 9.088 105.781 9.66 105.589 10.228C105.397 10.788 105.121 11.296 104.761 11.752C104.625 11.928 104.465 12.096 104.281 12.256C104.097 12.416 103.905 12.56 103.705 12.688C103.505 12.808 103.309 12.904 103.117 12.976C102.925 13.048 102.753 13.084 102.601 13.084C102.457 13.084 102.329 13.056 102.217 13C102.113 12.936 102.041 12.86 102.001 12.772C102.313 12.588 102.617 12.332 102.913 12.004C103.209 11.676 103.481 11.3 103.729 10.876C103.985 10.444 104.205 9.98 104.389 9.484C104.581 8.988 104.725 8.484 104.821 7.972C104.517 8.132 104.241 8.308 103.993 8.5C103.753 8.684 103.513 8.928 103.273 9.232C102.985 9.584 102.757 9.868 102.589 10.084C102.421 10.3 102.281 10.484 102.169 10.636C102.065 10.788 101.977 10.932 101.905 11.068C101.841 11.196 101.769 11.356 101.689 11.548C101.577 11.804 101.445 12.144 101.293 12.568C101.149 12.984 100.997 13.452 100.837 13.972C100.685 14.492 100.529 15.044 100.369 15.628C100.217 16.22 100.069 16.808 99.9247 17.392C99.8367 17.376 99.7607 17.312 99.6967 17.2C99.6327 17.128 99.5847 17.076 99.5527 17.044C99.5287 17.012 99.4967 16.988 99.4567 16.972ZM107.461 10.744C107.461 10.528 107.517 10.216 107.629 9.808C107.749 9.392 107.901 8.936 108.085 8.44C108.269 7.936 108.477 7.42 108.709 6.892C108.941 6.356 109.173 5.856 109.405 5.392C109.645 4.928 109.873 4.528 110.089 4.192C110.305 3.848 110.493 3.62 110.653 3.508C110.781 3.532 110.917 3.592 111.061 3.688C111.213 3.776 111.353 3.88 111.481 4C111.609 4.112 111.721 4.232 111.817 4.36C111.913 4.488 111.969 4.6 111.985 4.696C111.577 5.032 111.173 5.452 110.773 5.956C110.373 6.452 110.001 7.004 109.657 7.612C109.321 8.22 109.025 8.872 108.769 9.568C108.513 10.256 108.321 10.96 108.193 11.68C108.097 11.656 108.001 11.628 107.905 11.596C107.817 11.556 107.741 11.504 107.677 11.44C107.613 11.376 107.561 11.288 107.521 11.176C107.481 11.064 107.461 10.92 107.461 10.744ZM107.197 13.924C107.101 13.924 107.009 13.9 106.921 13.852C106.833 13.812 106.753 13.76 106.681 13.696C106.617 13.64 106.565 13.576 106.525 13.504C106.485 13.44 106.465 13.388 106.465 13.348C106.465 13.252 106.477 13.128 106.501 12.976C106.525 12.824 106.561 12.68 106.609 12.544C106.657 12.4 106.717 12.28 106.789 12.184C106.861 12.08 106.941 12.028 107.029 12.028C107.253 12.028 107.477 12.108 107.701 12.268C107.933 12.42 108.105 12.592 108.217 12.784C108.121 12.888 108.037 13.004 107.965 13.132C107.893 13.268 107.821 13.392 107.749 13.504C107.677 13.624 107.597 13.724 107.509 13.804C107.421 13.884 107.317 13.924 107.197 13.924Z" fill="white"/>
<path d="M10.0401 4.07483C12.0688 4.94252 13.1433 7.07384 12.7736 9.12091C13.8653 10.0476 14.5616 11.4207 14.5616 12.9455V13.0887C14.8281 12.996 15.1203 12.9455 15.4212 12.9455C16.1051 12.9455 16.7611 13.2118 17.2447 13.6857C17.7283 14.1597 18 14.8025 18 15.4727C18 16.143 17.7283 16.7858 17.2447 17.2598C16.7611 17.7337 16.1051 18 15.4212 18H4.24642C3.3345 18 2.45993 17.645 1.81511 17.013C1.17028 16.3811 0.808023 15.524 0.808023 14.6303C0.808023 13.7366 1.17028 12.8795 1.81511 12.2476C2.45993 11.6157 3.3345 11.2607 4.24642 11.2607H4.47851C3.38682 9.95491 3.04298 8.09316 3.81662 6.42517C4.86533 4.1001 7.65903 3.03865 10.0401 4.07483ZM9.34384 5.61645C7.82235 4.94252 6.04298 5.62488 5.37249 7.10753C4.97708 7.9668 5.04584 8.91873 5.45845 9.68533C6.39542 8.59019 7.82235 7.89098 9.40401 7.89098C10.0057 7.89098 10.5903 7.99207 11.1232 8.1774C11.0716 7.09911 10.4183 6.08821 9.34384 5.61645ZM10.7364 2.5332C10.2636 2.33102 9.79083 2.18781 9.30086 2.09514L11.4413 1L12.2149 3.43459C11.7765 3.08077 11.2865 2.7775 10.7364 2.5332ZM4.32378 3.20714C3.90258 3.50198 3.53295 3.83895 3.2149 4.20961L3.30946 1.84242L5.85387 2.41526C5.32092 2.59217 4.80516 2.86174 4.32378 3.20714ZM14.5616 7.64668C14.4842 7.14965 14.3725 6.66947 14.2092 6.20614L16.255 7.46977L14.4928 9.34836C14.5874 8.80079 14.6046 8.22795 14.5616 7.64668ZM1.70201 8.98612C1.76218 9.49158 1.87393 9.97175 2.03725 10.4182L0 9.15461L1.75358 7.28444C1.66762 7.83201 1.64183 8.40486 1.70201 8.98612ZM15.4212 14.6303H12.8424V12.9455C12.8424 12.0518 12.4801 11.1947 11.8353 10.5628C11.1905 9.93084 10.3159 9.57582 9.40401 9.57582C8.49209 9.57582 7.61752 9.93084 6.9727 10.5628C6.32787 11.1947 5.96562 12.0518 5.96562 12.9455H4.24642C3.79046 12.9455 3.35317 13.123 3.03076 13.439C2.70835 13.7549 2.52722 14.1835 2.52722 14.6303C2.52722 15.0772 2.70835 15.5057 3.03076 15.8217C3.35317 16.1377 3.79046 16.3152 4.24642 16.3152H15.4212C15.6492 16.3152 15.8678 16.2264 16.029 16.0684C16.1902 15.9104 16.2808 15.6962 16.2808 15.4727C16.2808 15.2493 16.1902 15.035 16.029 14.8771C15.8678 14.7191 15.6492 14.6303 15.4212 14.6303Z" fill="white"/>
</svg>
