<svg width="18" height="17" viewBox="0 0 18 17" fill="none" xmlns="http://www.w3.org/2000/svg">
<path d="M10.0401 3.07483C12.0688 3.94252 13.1433 6.07384 12.7736 8.12091C13.8653 9.04757 14.5616 10.4207 14.5616 11.9455V12.0887C14.8281 11.996 15.1203 11.9455 15.4212 11.9455C16.1051 11.9455 16.7611 12.2118 17.2447 12.6857C17.7283 13.1597 18 13.8025 18 14.4727C18 15.143 17.7283 15.7858 17.2447 16.2598C16.7611 16.7337 16.1051 17 15.4212 17H4.24642C3.3345 17 2.45993 16.645 1.81511 16.013C1.17028 15.3811 0.808023 14.524 0.808023 13.6303C0.808023 12.7366 1.17028 11.8795 1.81511 11.2476C2.45993 10.6157 3.3345 10.2607 4.24642 10.2607H4.47851C3.38682 8.95491 3.04298 7.09316 3.81662 5.42517C4.86533 3.1001 7.65903 2.03865 10.0401 3.07483ZM9.34384 4.61645C7.82235 3.94252 6.04298 4.62488 5.37249 6.10753C4.97708 6.9668 5.04584 7.91873 5.45845 8.68533C6.39542 7.59019 7.82235 6.89098 9.40401 6.89098C10.0057 6.89098 10.5903 6.99207 11.1232 7.1774C11.0716 6.09911 10.4183 5.08821 9.34384 4.61645ZM10.7364 1.5332C10.2636 1.33102 9.79083 1.18781 9.30086 1.09514L11.4413 0L12.2149 2.43459C11.7765 2.08077 11.2865 1.7775 10.7364 1.5332ZM4.32378 2.20714C3.90258 2.50198 3.53295 2.83895 3.2149 3.20961L3.30946 0.842418L5.85387 1.41526C5.32092 1.59217 4.80516 1.86174 4.32378 2.20714ZM14.5616 6.64668C14.4842 6.14965 14.3725 5.66947 14.2092 5.20614L16.255 6.46977L14.4928 8.34836C14.5874 7.80079 14.6046 7.22795 14.5616 6.64668ZM1.70201 7.98612C1.76218 8.49158 1.87393 8.97175 2.03725 9.41824L0 8.15461L1.75358 6.28444C1.66762 6.83201 1.64183 7.40486 1.70201 7.98612ZM15.4212 13.6303H12.8424V11.9455C12.8424 11.0518 12.4801 10.1947 11.8353 9.56277C11.1905 8.93084 10.3159 8.57582 9.40401 8.57582C8.49209 8.57582 7.61752 8.93084 6.9727 9.56277C6.32787 10.1947 5.96562 11.0518 5.96562 11.9455H4.24642C3.79046 11.9455 3.35317 12.123 3.03076 12.439C2.70835 12.7549 2.52722 13.1835 2.52722 13.6303C2.52722 14.0772 2.70835 14.5057 3.03076 14.8217C3.35317 15.1377 3.79046 15.3152 4.24642 15.3152H15.4212C15.6492 15.3152 15.8678 15.2264 16.029 15.0684C16.1902 14.9104 16.2808 14.6962 16.2808 14.4727C16.2808 14.2493 16.1902 14.035 16.029 13.8771C15.8678 13.7191 15.6492 13.6303 15.4212 13.6303Z" fill="white"/>
</svg>
